<?xml version="1.0" encoding="utf-8"?>
<!-- Generator: Adobe Illustrator 17.1.0, SVG Export Plug-In . SVG Version: 6.00 Build 0)  -->
<!DOCTYPE svg PUBLIC "-//W3C//DTD SVG 1.1//EN" "http://www.w3.org/Graphics/SVG/1.1/DTD/svg11.dtd">
<svg version="1.1" id="Layer_1" xmlns="http://www.w3.org/2000/svg" xmlns:xlink="http://www.w3.org/1999/xlink" x="0px" y="0px"
	 viewBox="0 0 500 500" enable-background="new 0 0 500 500" xml:space="preserve">
<g>
	<path fill="#333333" d="M250,0C111.9,0,0,111.9,0,250c0,91.2,48.8,170.9,121.7,214.6c0-3.8-0.3-8.1-0.9-13.2
		c-0.6-5.1-0.9-9.2-0.9-12.2c0-0.9,0.3-3,0.6-6.3c0.3-3.3,0.9-6.9,1.2-10.7c0.3-3.9,0.9-7.8,1.5-11.6c0.6-3.9,1.2-7.5,1.5-10.4
		c1.8-17.6,3.9-33.7,6.9-47.4c2.7-14,6.3-28,10.1-42.1c3.9-14,8.1-28.3,12.5-43.2c4.5-14.9,9.2-31.9,14.6-51.6
		c8.6-31.6,14.6-63.5,18.2-95.7c3.6-32.5,8.6-64.4,15.5-96.3c0.3-2.7,1.5-4.8,3-6.6c1.5-1.8,3.6-2.7,6.3-2.7c2.1,0,7.2,1.5,14.6,4.2
		c7.5,2.7,12.5,7.2,14.6,12.5c3.9,9.5,5.7,19.4,5.4,29.5s0,20.9,0.9,31.9c5.7-4.8,10.4-8.9,14.3-12.2c3.9-3.6,7.5-6,11-7.5
		c3.6-1.5,7.2-2.7,11-3.6c3.9-0.9,8.9-1.2,15.5-1.2c25.4,0,44.4,7.5,57,22.7c13.1,15.5,19.4,33.7,19.4,55.2c0,0.9-0.3,3.3-0.6,6.9
		c-0.3,3.6-1.2,7.8-2.1,11.9c-0.9,4.2-1.5,8.6-2.4,12.8c-0.6,4.2-1.5,7.8-2.4,10.4c-3.9,12.5-7.5,24.8-11,36.7s-8.6,23.9-15.5,35.8
		c-0.3,1.2-2.1,4.2-5.1,8.4c-3,4.2-7.2,9.8-12.2,16.7c-5.1,6.9-10.7,14-16.7,21.8c-6,7.5-12.2,14.6-18.2,21.2
		c-6,6.6-11.9,11.9-17.6,16c-5.7,4.2-9.8,6.5-12.8,6.5h-10.4c-2.7,0-3.9-0.2-3.6-0.5c0.3-0.3,0.3-0.9,0-1.5c-0.3-0.6-1.6-1.5-4-2.4
		c-2.4-0.9-7.9-1.2-15.9-1.2c0-0.9,0-2.1,0-3.6s0.4-2.7,1.3-3.6c-2.7-0.9-4.7-1.5-6.8-2.4c-2.1-0.6-4.7-1.5-8-3
		c-0.9,1.2-1.8,2.7-2.7,4.2c-0.9,1.5-1.8,3-2.7,4.2c-1.2,9.8-3.3,21.5-6,34.6c-2.7,13.1-5.1,26.8-7.5,40.9c-2.4,14-4.2,28-5.4,42.4
		c-1,11.5-1.1,22.5-0.2,32.9c20.1,5.2,41.2,8,62.9,8c138.1,0,250-111.9,250-250S388.1,0,250,0z"/>
	<path fill="#333333" d="M287.5,230.7c11.3-17.9,20.6-36.7,28-56.7c7.5-20,11.3-38.2,11.3-55.2c0-3-0.3-6.9-1.2-11.3s-2.7-7.2-6-8.1
		c-8.6,4.8-16.7,10.7-24.5,18.2s-15.2,15.2-22.1,23.6c-6.9,8.4-13.1,17.3-18.8,26.2S244,185.3,240.1,194c-1.2,2.7-3,5.7-4.8,8.9
		c-2.1,3.6-3.3,6.3-4.2,8.4c-1.8,6-3.3,13.1-4.8,21.8c-1.5,8.4-3,16.7-4.5,25.4c-1.5,8.4-2.8,15.5-3.6,21.8c-0.9,6-1.3,9.5-1.3,10.4
		v8.9c11-2.7,21.8-10.1,34.7-23C264.5,263.8,276.5,248.6,287.5,230.7z"/>
</g>
<g>
	<path fill="#00D6DB" d="M288.5,454.3c0,5.4-0.9,9.2-2.8,11.8c-1.9,2.6-4,4.5-6.9,6.2c-2.6,1.4-5.7,2.8-9,4c-3.3,1.2-6.4,2.6-9,4.3
		c0-0.2-0.2-0.7-0.5-0.9c-0.9-0.9-2.1-2.1-3.5-3.1c0.2-0.7-0.2-1.7-1.7-2.8c-1.4-1.2-2.8-2.8-3.8-4.7c-0.7-2.4-1.7-5.4-3.3-9
		c-1.4-3.8-2.4-6.4-2.4-8c0-2.1,0.5-3.5,1.7-4.3c1.2-0.9,2.1-1.7,2.8-2.4c0.2-2.6,0.5-5.4,0.7-8.5c0.2-3.1,1.2-5.9,3.3-8.5
		c0.7-1.7,2.4-3.3,4.7-4.7c2.6-1.4,5-2.4,7.3-2.4c2.1,0,3.5,0.2,4.7,0.9c1.2,0.7,2.6,1.2,4.3,1.4c0.2,0.7,1.2,2.1,2.8,4.5
		c1.4,2.4,3.1,5.2,4.5,8.5c1.4,3.3,2.8,6.6,4,9.9C287.8,449.8,288.5,452.4,288.5,454.3z"/>
</g>
</svg>
